<svg width="51" height="34" viewBox="0 0 51 34" fill="none" xmlns="http://www.w3.org/2000/svg">
<circle cx="34" cy="17" r="16.5" stroke="#ED4242"/>
<path d="M1 16.5C0.723858 16.5 0.5 16.7239 0.5 17C0.5 17.2761 0.723858 17.5 1 17.5L1 16.5ZM35.3536 17.3536C35.5488 17.1583 35.5488 16.8417 35.3536 16.6464L32.1716 13.4645C31.9763 13.2692 31.6597 13.2692 31.4645 13.4645C31.2692 13.6597 31.2692 13.9763 31.4645 14.1716L34.2929 17L31.4645 19.8284C31.2692 20.0237 31.2692 20.3403 31.4645 20.5355C31.6597 20.7308 31.9763 20.7308 32.1716 20.5355L35.3536 17.3536ZM1 17.5L35 17.5L35 16.5L1 16.5L1 17.5Z" fill="#ED4242"/>
</svg>
