<svg width="41" height="41" viewBox="0 0 41 41" fill="none" xmlns="http://www.w3.org/2000/svg">
<path d="M23.3424 18.0317L23.5233 18.4931L24.0187 18.5077L30.752 18.7055L25.484 22.469L25.041 22.7855L25.2047 23.3047L27.0903 29.2875L21.3973 25.7319L21 25.4837L20.6027 25.7319L14.9097 29.2875L16.7953 23.3047L16.959 22.7855L16.516 22.469L11.248 18.7055L17.9813 18.5077L18.4767 18.4931L18.6576 18.0317L21 12.0553L23.3424 18.0317ZM14.3352 29.6463C14.3354 29.6462 14.3357 29.646 14.3359 29.6459L14.3352 29.6463ZM21.2328 11.4614C21.2327 11.4616 21.2326 11.4618 21.2326 11.4619L21.2328 11.4614L21 11.3702L21.2328 11.4614Z" stroke="black" stroke-width="1.5"/>
</svg>
