<svg width="18" height="18" viewBox="0 0 18 18" fill="none" xmlns="http://www.w3.org/2000/svg">
<path d="M8.95177 17.5502H8.95172C4.21983 17.4983 0.450539 13.7158 0.449276 9.00236C0.500855 4.23534 4.42418 0.399303 9.20408 0.449768C13.8763 0.554664 17.6006 4.43848 17.5502 9.15883C17.5 13.8712 13.6297 17.602 8.95177 17.5502Z" fill="black" stroke="black" stroke-width="0.898551"/>
<g clip-path="url(#clip0_906_266)">
<path d="M7.53144 9.6929L7.38257 11.7869C7.59557 11.7869 7.68782 11.6954 7.79844 11.5855L8.79707 10.6312L10.8663 12.1465C11.2458 12.358 11.5132 12.2466 11.6156 11.7974L12.9738 5.4329L12.9742 5.43253C13.0946 4.87153 12.7713 4.65216 12.4016 4.78978L4.41782 7.8464C3.87294 8.0579 3.88119 8.36165 4.32519 8.49928L6.36632 9.13415L11.1074 6.16753C11.3306 6.01978 11.5334 6.10153 11.3666 6.24928L7.53144 9.6929Z" fill="white"/>
</g>
<defs>
<clipPath id="clip0_906_266">
<rect width="9" height="9" fill="white" transform="translate(4 4)"/>
</clipPath>
</defs>
</svg>
